{
	"asset":{
		"generator":"Khronos glTF Blender I/O v5.0.21",
		"version":"2.0"
	},
	"scene":0,
	"scenes":[
		{
			"name":"Scene",
			"nodes":[
				0
			]
		}
	],
	"nodes":[
		{
			"mesh":0,
			"name":"Model"
		}
	],
	"materials":[
		{
			"doubleSided":true,
			"name":"color1",
			"pbrMetallicRoughness":{
				"metallicFactor":0,
				"roughnessFactor":0
			}
		},
		{
			"doubleSided":true,
			"name":"body",
			"pbrMetallicRoughness":{
				"baseColorFactor":[
					0.029999999329447746,
					0.029999999329447746,
					0.029999999329447746,
					1
				]
			}
		},
		{
			"doubleSided":true,
			"name":"color2_dark",
			"pbrMetallicRoughness":{
				"baseColorFactor":[
					0.03310399502515793,
					0.03310399502515793,
					0.03310399502515793,
					1
				],
				"metallicFactor":0,
				"roughnessFactor":0.5
			}
		},
		{
			"doubleSided":true,
			"name":"screen",
			"pbrMetallicRoughness":{
				"baseColorFactor":[
					0,
					0,
					0,
					1
				],
				"metallicFactor":0
			}
		},
		{
			"doubleSided":true,
			"name":"fluid-connector",
			"pbrMetallicRoughness":{
				"baseColorFactor":[
					0.5,
					0.5,
					0.5,
					1
				]
			}
		},
		{
			"doubleSided":true,
			"name":"data-connector",
			"pbrMetallicRoughness":{
				"baseColorFactor":[
					0,
					0.05000000074505806,
					0.5,
					1
				]
			}
		},
		{
			"doubleSided":true,
			"name":"hv-connector",
			"pbrMetallicRoughness":{
				"baseColorFactor":[
					0.5,
					0.15000000596046448,
					0,
					1
				]
			}
		}
	],
	"meshes":[
		{
			"name":"Cube",
			"primitives":[
				{
					"attributes":{
						"POSITION":0,
						"NORMAL":1,
						"TEXCOORD_0":2
					},
					"indices":3,
					"material":0
				},
				{
					"attributes":{
						"POSITION":4,
						"NORMAL":5,
						"TEXCOORD_0":6
					},
					"indices":7,
					"material":1
				},
				{
					"attributes":{
						"POSITION":8,
						"NORMAL":9,
						"TEXCOORD_0":10
					},
					"indices":11,
					"material":2
				},
				{
					"attributes":{
						"POSITION":12,
						"NORMAL":13,
						"TEXCOORD_0":14
					},
					"indices":15,
					"material":3
				},
				{
					"attributes":{
						"POSITION":16,
						"NORMAL":17,
						"TEXCOORD_0":18
					},
					"indices":19,
					"material":4
				},
				{
					"attributes":{
						"POSITION":20,
						"NORMAL":21,
						"TEXCOORD_0":22
					},
					"indices":23,
					"material":5
				},
				{
					"attributes":{
						"POSITION":24,
						"NORMAL":25,
						"TEXCOORD_0":26
					},
					"indices":27,
					"material":6
				}
			]
		}
	],
	"accessors":[
		{
			"bufferView":0,
			"componentType":5126,
			"count":186,
			"max":[
				0.36500000953674316,
				1.7400000095367432,
				0.46000000834465027
			],
			"min":[
				-0.49000000953674316,
				0,
				-0.4921856224536896
			],
			"type":"VEC3"
		},
		{
			"bufferView":1,
			"componentType":5126,
			"count":186,
			"type":"VEC3"
		},
		{
			"bufferView":2,
			"componentType":5126,
			"count":186,
			"type":"VEC2"
		},
		{
			"bufferView":3,
			"componentType":5123,
			"count":678,
			"type":"SCALAR"
		},
		{
			"bufferView":4,
			"componentType":5126,
			"count":115,
			"max":[
				0.75,
				1.5,
				0.375
			],
			"min":[
				0.3578212559223175,
				0,
				-0.375
			],
			"type":"VEC3"
		},
		{
			"bufferView":5,
			"componentType":5126,
			"count":115,
			"type":"VEC3"
		},
		{
			"bufferView":6,
			"componentType":5126,
			"count":115,
			"type":"VEC2"
		},
		{
			"bufferView":7,
			"componentType":5123,
			"count":462,
			"type":"SCALAR"
		},
		{
			"bufferView":8,
			"componentType":5126,
			"count":80,
			"max":[
				0.7599999904632568,
				1.5099999904632568,
				0.38499999046325684
			],
			"min":[
				0.3726257383823395,
				0.007499992847442627,
				-0.38499999046325684
			],
			"type":"VEC3"
		},
		{
			"bufferView":9,
			"componentType":5126,
			"count":80,
			"type":"VEC3"
		},
		{
			"bufferView":10,
			"componentType":5126,
			"count":80,
			"type":"VEC2"
		},
		{
			"bufferView":11,
			"componentType":5123,
			"count":120,
			"type":"SCALAR"
		},
		{
			"bufferView":12,
			"componentType":5126,
			"count":4,
			"max":[
				0.1666065752506256,
				1.5555355548858643,
				-0.4921856224536896
			],
			"min":[
				-0.2916065454483032,
				1.4444644451141357,
				-0.4921856224536896
			],
			"type":"VEC3"
		},
		{
			"bufferView":13,
			"componentType":5126,
			"count":4,
			"type":"VEC3"
		},
		{
			"bufferView":14,
			"componentType":5126,
			"count":4,
			"type":"VEC2"
		},
		{
			"bufferView":15,
			"componentType":5123,
			"count":6,
			"type":"SCALAR"
		},
		{
			"bufferView":16,
			"componentType":5126,
			"count":18432,
			"max":[
				0.7778335213661194,
				1.4748965501785278,
				0.4978335499763489
			],
			"min":[
				-0.4248965382575989,
				0.025103449821472168,
				-0.34989655017852783
			],
			"type":"VEC3"
		},
		{
			"bufferView":17,
			"componentType":5126,
			"count":18432,
			"type":"VEC3"
		},
		{
			"bufferView":18,
			"componentType":5126,
			"count":18432,
			"type":"VEC2"
		},
		{
			"bufferView":19,
			"componentType":5123,
			"count":43248,
			"type":"SCALAR"
		},
		{
			"bufferView":20,
			"componentType":5126,
			"count":372,
			"max":[
				-0.3741726279258728,
				0.1180022656917572,
				0.480648934841156
			],
			"min":[
				-0.4338909983634949,
				0.05828392505645752,
				0.46000000834465027
			],
			"type":"VEC3"
		},
		{
			"bufferView":21,
			"componentType":5126,
			"count":372,
			"type":"VEC3"
		},
		{
			"bufferView":22,
			"componentType":5126,
			"count":372,
			"type":"VEC2"
		},
		{
			"bufferView":23,
			"componentType":5123,
			"count":1020,
			"type":"SCALAR"
		},
		{
			"bufferView":24,
			"componentType":5126,
			"count":696,
			"max":[
				-0.17964956164360046,
				0.19535043835639954,
				0.5017194747924805
			],
			"min":[
				-0.32035040855407715,
				0.054649561643600464,
				0.4600001573562622
			],
			"type":"VEC3"
		},
		{
			"bufferView":25,
			"componentType":5126,
			"count":696,
			"type":"VEC3"
		},
		{
			"bufferView":26,
			"componentType":5126,
			"count":696,
			"type":"VEC2"
		},
		{
			"bufferView":27,
			"componentType":5123,
			"count":2148,
			"type":"SCALAR"
		}
	],
	"bufferViews":[
		{
			"buffer":0,
			"byteLength":2232,
			"byteOffset":0,
			"target":34962
		},
		{
			"buffer":0,
			"byteLength":2232,
			"byteOffset":2232,
			"target":34962
		},
		{
			"buffer":0,
			"byteLength":1488,
			"byteOffset":4464,
			"target":34962
		},
		{
			"buffer":0,
			"byteLength":1356,
			"byteOffset":5952,
			"target":34963
		},
		{
			"buffer":0,
			"byteLength":1380,
			"byteOffset":7308,
			"target":34962
		},
		{
			"buffer":0,
			"byteLength":1380,
			"byteOffset":8688,
			"target":34962
		},
		{
			"buffer":0,
			"byteLength":920,
			"byteOffset":10068,
			"target":34962
		},
		{
			"buffer":0,
			"byteLength":924,
			"byteOffset":10988,
			"target":34963
		},
		{
			"buffer":0,
			"byteLength":960,
			"byteOffset":11912,
			"target":34962
		},
		{
			"buffer":0,
			"byteLength":960,
			"byteOffset":12872,
			"target":34962
		},
		{
			"buffer":0,
			"byteLength":640,
			"byteOffset":13832,
			"target":34962
		},
		{
			"buffer":0,
			"byteLength":240,
			"byteOffset":14472,
			"target":34963
		},
		{
			"buffer":0,
			"byteLength":48,
			"byteOffset":14712,
			"target":34962
		},
		{
			"buffer":0,
			"byteLength":48,
			"byteOffset":14760,
			"target":34962
		},
		{
			"buffer":0,
			"byteLength":32,
			"byteOffset":14808,
			"target":34962
		},
		{
			"buffer":0,
			"byteLength":12,
			"byteOffset":14840,
			"target":34963
		},
		{
			"buffer":0,
			"byteLength":221184,
			"byteOffset":14852,
			"target":34962
		},
		{
			"buffer":0,
			"byteLength":221184,
			"byteOffset":236036,
			"target":34962
		},
		{
			"buffer":0,
			"byteLength":147456,
			"byteOffset":457220,
			"target":34962
		},
		{
			"buffer":0,
			"byteLength":86496,
			"byteOffset":604676,
			"target":34963
		},
		{
			"buffer":0,
			"byteLength":4464,
			"byteOffset":691172,
			"target":34962
		},
		{
			"buffer":0,
			"byteLength":4464,
			"byteOffset":695636,
			"target":34962
		},
		{
			"buffer":0,
			"byteLength":2976,
			"byteOffset":700100,
			"target":34962
		},
		{
			"buffer":0,
			"byteLength":2040,
			"byteOffset":703076,
			"target":34963
		},
		{
			"buffer":0,
			"byteLength":8352,
			"byteOffset":705116,
			"target":34962
		},
		{
			"buffer":0,
			"byteLength":8352,
			"byteOffset":713468,
			"target":34962
		},
		{
			"buffer":0,
			"byteLength":5568,
			"byteOffset":721820,
			"target":34962
		},
		{
			"buffer":0,
			"byteLength":4296,
			"byteOffset":727388,
			"target":34963
		}
	],
	"buffers":[
		{
			"byteLength":731684,
			"uri":"Chiller.bin"
		}
	]
}
