{
	"asset":{
		"generator":"Khronos glTF Blender I/O v5.0.21",
		"version":"2.0"
	},
	"scene":0,
	"scenes":[
		{
			"name":"Scene",
			"nodes":[
				0,
				1,
				2
			]
		}
	],
	"nodes":[
		{
			"mesh":0,
			"name":"body"
		},
		{
			"mesh":1,
			"name":"Handle"
		},
		{
			"mesh":2,
			"name":"Knob"
		}
	],
	"materials":[
		{
			"doubleSided":true,
			"name":"color2",
			"pbrMetallicRoughness":{
				"baseColorFactor":[
					0.800000011920929,
					0.800000011920929,
					0.800000011920929,
					1
				]
			}
		},
		{
			"doubleSided":true,
			"name":"data-connector",
			"pbrMetallicRoughness":{
				"baseColorFactor":[
					0,
					0.05000000074505806,
					0.5,
					1
				]
			}
		},
		{
			"doubleSided":true,
			"name":"color1",
			"pbrMetallicRoughness":{
				"baseColorFactor":[
					1,
					0,
					0,
					1
				],
				"metallicFactor":0,
				"roughnessFactor":0
			}
		}
	],
	"meshes":[
		{
			"name":"Cylinder.001",
			"primitives":[
				{
					"attributes":{
						"POSITION":0,
						"NORMAL":1
					},
					"indices":2,
					"material":0
				},
				{
					"attributes":{
						"POSITION":3,
						"NORMAL":4
					},
					"indices":5,
					"material":1
				}
			]
		},
		{
			"name":"Cylinder",
			"primitives":[
				{
					"attributes":{
						"POSITION":6,
						"NORMAL":7
					},
					"indices":8,
					"material":0
				},
				{
					"attributes":{
						"POSITION":9,
						"NORMAL":10
					},
					"indices":11,
					"material":2
				}
			]
		},
		{
			"name":"Cylinder.007",
			"primitives":[
				{
					"attributes":{
						"POSITION":12,
						"NORMAL":13
					},
					"indices":14,
					"material":2
				},
				{
					"attributes":{
						"POSITION":15,
						"NORMAL":16
					},
					"indices":17,
					"material":0
				}
			]
		}
	],
	"accessors":[
		{
			"bufferView":0,
			"componentType":5126,
			"count":1344,
			"max":[
				0.05000000074505806,
				0.09750863164663315,
				0.05000000074505806
			],
			"min":[
				-0.05000000074505806,
				0,
				-0.05000000074505806
			],
			"type":"VEC3"
		},
		{
			"bufferView":1,
			"componentType":5126,
			"count":1344,
			"type":"VEC3"
		},
		{
			"bufferView":2,
			"componentType":5123,
			"count":5748,
			"type":"SCALAR"
		},
		{
			"bufferView":3,
			"componentType":5126,
			"count":372,
			"max":[
				0.02985917031764984,
				1.30385160446167e-08,
				0.02985917031764984
			],
			"min":[
				-0.02985917031764984,
				-0.020648952573537827,
				-0.02985917590558529
			],
			"type":"VEC3"
		},
		{
			"bufferView":4,
			"componentType":5126,
			"count":372,
			"type":"VEC3"
		},
		{
			"bufferView":5,
			"componentType":5123,
			"count":1020,
			"type":"SCALAR"
		},
		{
			"bufferView":6,
			"componentType":5126,
			"count":488,
			"max":[
				0.025000005960464478,
				0.10448528826236725,
				0.025000018998980522
			],
			"min":[
				-0.056919489055871964,
				0.08025000244379044,
				-0.025000005960464478
			],
			"type":"VEC3"
		},
		{
			"bufferView":7,
			"componentType":5126,
			"count":488,
			"type":"VEC3"
		},
		{
			"bufferView":8,
			"componentType":5123,
			"count":1308,
			"type":"SCALAR"
		},
		{
			"bufferView":9,
			"componentType":5126,
			"count":178,
			"max":[
				-0.05691947415471077,
				0.10561030358076096,
				0.026250053197145462
			],
			"min":[
				-0.18924009799957275,
				0.0958603024482727,
				-0.026249980553984642
			],
			"type":"VEC3"
		},
		{
			"bufferView":10,
			"componentType":5126,
			"count":178,
			"type":"VEC3"
		},
		{
			"bufferView":11,
			"componentType":5123,
			"count":366,
			"type":"SCALAR"
		},
		{
			"bufferView":12,
			"componentType":5126,
			"count":1767,
			"max":[
				0.08999999612569809,
				0.10999587923288345,
				0.08999999612569809
			],
			"min":[
				-0.08999999612569809,
				0.08024999499320984,
				-0.08999999612569809
			],
			"type":"VEC3"
		},
		{
			"bufferView":13,
			"componentType":5126,
			"count":1767,
			"type":"VEC3"
		},
		{
			"bufferView":14,
			"componentType":5123,
			"count":8718,
			"type":"SCALAR"
		},
		{
			"bufferView":15,
			"componentType":5126,
			"count":556,
			"max":[
				0.017320508137345314,
				0.09999998658895493,
				0.019999999552965164
			],
			"min":[
				-0.017320508137345314,
				0.07999998331069946,
				-0.019999999552965164
			],
			"type":"VEC3"
		},
		{
			"bufferView":16,
			"componentType":5126,
			"count":556,
			"type":"VEC3"
		},
		{
			"bufferView":17,
			"componentType":5123,
			"count":1542,
			"type":"SCALAR"
		}
	],
	"bufferViews":[
		{
			"buffer":0,
			"byteLength":16128,
			"byteOffset":0,
			"target":34962
		},
		{
			"buffer":0,
			"byteLength":16128,
			"byteOffset":16128,
			"target":34962
		},
		{
			"buffer":0,
			"byteLength":11496,
			"byteOffset":32256,
			"target":34963
		},
		{
			"buffer":0,
			"byteLength":4464,
			"byteOffset":43752,
			"target":34962
		},
		{
			"buffer":0,
			"byteLength":4464,
			"byteOffset":48216,
			"target":34962
		},
		{
			"buffer":0,
			"byteLength":2040,
			"byteOffset":52680,
			"target":34963
		},
		{
			"buffer":0,
			"byteLength":5856,
			"byteOffset":54720,
			"target":34962
		},
		{
			"buffer":0,
			"byteLength":5856,
			"byteOffset":60576,
			"target":34962
		},
		{
			"buffer":0,
			"byteLength":2616,
			"byteOffset":66432,
			"target":34963
		},
		{
			"buffer":0,
			"byteLength":2136,
			"byteOffset":69048,
			"target":34962
		},
		{
			"buffer":0,
			"byteLength":2136,
			"byteOffset":71184,
			"target":34962
		},
		{
			"buffer":0,
			"byteLength":732,
			"byteOffset":73320,
			"target":34963
		},
		{
			"buffer":0,
			"byteLength":21204,
			"byteOffset":74052,
			"target":34962
		},
		{
			"buffer":0,
			"byteLength":21204,
			"byteOffset":95256,
			"target":34962
		},
		{
			"buffer":0,
			"byteLength":17436,
			"byteOffset":116460,
			"target":34963
		},
		{
			"buffer":0,
			"byteLength":6672,
			"byteOffset":133896,
			"target":34962
		},
		{
			"buffer":0,
			"byteLength":6672,
			"byteOffset":140568,
			"target":34962
		},
		{
			"buffer":0,
			"byteLength":3084,
			"byteOffset":147240,
			"target":34963
		}
	],
	"buffers":[
		{
			"byteLength":150324,
			"uri":"ValveHandle.bin"
		}
	]
}
