{
	"asset":{
		"generator":"Khronos glTF Blender I/O v5.0.21",
		"version":"2.0"
	},
	"scene":0,
	"scenes":[
		{
			"name":"Scene",
			"nodes":[
				0,
				1,
				2,
				3
			]
		}
	],
	"nodes":[
		{
			"mesh":0,
			"name":"Doorframe"
		},
		{
			"mesh":1,
			"name":"Door",
			"translation":[
				0,
				0,
				-0.04999999701976776
			]
		},
		{
			"mesh":2,
			"name":"Lever",
			"translation":[
				0,
				0.10000002384185791,
				0
			]
		},
		{
			"mesh":3,
			"name":"Turnhandle",
			"rotation":[
				0,
				0,
				-0.7071068286895752,
				0.7071068286895752
			],
			"translation":[
				-1,
				1.0999999046325684,
				0
			]
		}
	],
	"materials":[
		{
			"doubleSided":true,
			"name":"frame",
			"pbrMetallicRoughness":{
				"metallicFactor":0,
				"roughnessFactor":0
			}
		},
		{
			"doubleSided":true,
			"name":"color2",
			"pbrMetallicRoughness":{
				"baseColorFactor":[
					0.800000011920929,
					0.800000011920929,
					0.800000011920929,
					1
				]
			}
		},
		{
			"doubleSided":true,
			"name":"data-connector",
			"pbrMetallicRoughness":{
				"baseColorFactor":[
					0,
					0.05000000074505806,
					0.5,
					1
				]
			}
		},
		{
			"doubleSided":true,
			"name":"door",
			"pbrMetallicRoughness":{
				"metallicFactor":0,
				"roughnessFactor":0
			}
		},
		{
			"alphaMode":"MASK",
			"doubleSided":true,
			"name":"glass",
			"pbrMetallicRoughness":{
				"baseColorFactor":[
					0.800000011920929,
					0.800000011920929,
					0.800000011920929,
					0
				],
				"metallicFactor":0,
				"roughnessFactor":0
			}
		},
		{
			"doubleSided":true,
			"name":"body",
			"pbrMetallicRoughness":{
				"baseColorFactor":[
					0.029999999329447746,
					0.029999999329447746,
					0.029999999329447746,
					1
				]
			}
		},
		{
			"doubleSided":true,
			"name":"lever",
			"pbrMetallicRoughness":{
				"baseColorFactor":[
					0.800000011920929,
					0.800000011920929,
					0.800000011920929,
					1
				]
			}
		},
		{
			"doubleSided":true,
			"name":"turnhandle",
			"pbrMetallicRoughness":{
				"baseColorFactor":[
					0.800000011920929,
					0.800000011920929,
					0.800000011920929,
					1
				]
			}
		}
	],
	"meshes":[
		{
			"name":"Cube",
			"primitives":[
				{
					"attributes":{
						"POSITION":0,
						"NORMAL":1
					},
					"indices":2,
					"material":0
				},
				{
					"attributes":{
						"POSITION":3,
						"NORMAL":4
					},
					"indices":5,
					"material":1
				},
				{
					"attributes":{
						"POSITION":6,
						"NORMAL":7
					},
					"indices":8,
					"material":2
				}
			]
		},
		{
			"name":"Cube.001",
			"primitives":[
				{
					"attributes":{
						"POSITION":9,
						"NORMAL":10
					},
					"indices":11,
					"material":3
				},
				{
					"attributes":{
						"POSITION":12,
						"NORMAL":13
					},
					"indices":14,
					"material":4
				},
				{
					"attributes":{
						"POSITION":15,
						"NORMAL":16
					},
					"indices":17,
					"material":5
				},
				{
					"attributes":{
						"POSITION":18,
						"NORMAL":19
					},
					"indices":20,
					"material":1
				}
			]
		},
		{
			"name":"Plane.001",
			"primitives":[
				{
					"attributes":{
						"POSITION":21,
						"NORMAL":22
					},
					"indices":23,
					"material":6
				}
			]
		},
		{
			"name":"Plane.006",
			"primitives":[
				{
					"attributes":{
						"POSITION":24,
						"NORMAL":25
					},
					"indices":26,
					"material":7
				}
			]
		}
	],
	"accessors":[
		{
			"bufferView":0,
			"componentType":5126,
			"count":946,
			"max":[
				0.625,
				2.25,
				-3.725290298461914e-09
			],
			"min":[
				-0.625,
				0,
				-0.2150000035762787
			],
			"type":"VEC3"
		},
		{
			"bufferView":1,
			"componentType":5126,
			"count":946,
			"type":"VEC3"
		},
		{
			"bufferView":2,
			"componentType":5123,
			"count":2826,
			"type":"SCALAR"
		},
		{
			"bufferView":3,
			"componentType":5126,
			"count":434,
			"max":[
				0.5632466077804565,
				1.4750001430511475,
				-0.05000000447034836
			],
			"min":[
				-0.5607984662055969,
				0.7249999642372131,
				-0.10000000894069672
			],
			"type":"VEC3"
		},
		{
			"bufferView":4,
			"componentType":5126,
			"count":434,
			"type":"VEC3"
		},
		{
			"bufferView":5,
			"componentType":5123,
			"count":1266,
			"type":"SCALAR"
		},
		{
			"bufferView":6,
			"componentType":5126,
			"count":376,
			"max":[
				-0.5201408267021179,
				8.233899784215737e-09,
				-0.05764082819223404
			],
			"min":[
				-0.57985919713974,
				-0.020648948848247528,
				-0.11735916882753372
			],
			"type":"VEC3"
		},
		{
			"bufferView":7,
			"componentType":5126,
			"count":376,
			"type":"VEC3"
		},
		{
			"bufferView":8,
			"componentType":5123,
			"count":1020,
			"type":"SCALAR"
		},
		{
			"bufferView":9,
			"componentType":5126,
			"count":1026,
			"max":[
				0.5806566476821899,
				2.1925125122070312,
				0.07032936066389084
			],
			"min":[
				-0.5444999933242798,
				0.00748753547668457,
				-0.1700040102005005
			],
			"type":"VEC3"
		},
		{
			"bufferView":10,
			"componentType":5126,
			"count":1026,
			"type":"VEC3"
		},
		{
			"bufferView":11,
			"componentType":5123,
			"count":2874,
			"type":"SCALAR"
		},
		{
			"bufferView":12,
			"componentType":5126,
			"count":128,
			"max":[
				0.1127520203590393,
				1.7880522012710571,
				0.019158078357577324
			],
			"min":[
				-0.11224798858165741,
				1.5630520582199097,
				-0.11924191564321518
			],
			"type":"VEC3"
		},
		{
			"bufferView":13,
			"componentType":5126,
			"count":128,
			"type":"VEC3"
		},
		{
			"bufferView":14,
			"componentType":5123,
			"count":372,
			"type":"SCALAR"
		},
		{
			"bufferView":15,
			"componentType":5126,
			"count":128,
			"max":[
				0.1127520203590393,
				1.7880522012710571,
				0.019158078357577324
			],
			"min":[
				-0.11224798858165741,
				1.5630520582199097,
				-0.11924191564321518
			],
			"type":"VEC3"
		},
		{
			"bufferView":16,
			"componentType":5126,
			"count":128,
			"type":"VEC3"
		},
		{
			"bufferView":17,
			"componentType":5123,
			"count":384,
			"type":"SCALAR"
		},
		{
			"bufferView":18,
			"componentType":5126,
			"count":5938,
			"max":[
				0.4931437373161316,
				1.8255521059036255,
				0.0331411175429821
			],
			"min":[
				-0.4931437373161316,
				0.7249999642372131,
				-0.1337883621454239
			],
			"type":"VEC3"
		},
		{
			"bufferView":19,
			"componentType":5126,
			"count":5938,
			"type":"VEC3"
		},
		{
			"bufferView":20,
			"componentType":5123,
			"count":12726,
			"type":"SCALAR"
		},
		{
			"bufferView":21,
			"componentType":5126,
			"count":600,
			"max":[
				-0.16499999165534973,
				1.0149999856948853,
				0.040046945214271545
			],
			"min":[
				-0.36500000953674316,
				0.9850000143051147,
				-0.24000400304794312
			],
			"type":"VEC3"
		},
		{
			"bufferView":22,
			"componentType":5126,
			"count":600,
			"type":"VEC3"
		},
		{
			"bufferView":23,
			"componentType":5123,
			"count":3492,
			"type":"SCALAR"
		},
		{
			"bufferView":24,
			"componentType":5126,
			"count":1400,
			"max":[
				0.11500000208616257,
				1.1150000095367432,
				0.04607909545302391
			],
			"min":[
				-0.11500000208616257,
				0.8849999904632568,
				-0.02499999850988388
			],
			"type":"VEC3"
		},
		{
			"bufferView":25,
			"componentType":5126,
			"count":1400,
			"type":"VEC3"
		},
		{
			"bufferView":26,
			"componentType":5123,
			"count":7764,
			"type":"SCALAR"
		}
	],
	"bufferViews":[
		{
			"buffer":0,
			"byteLength":11352,
			"byteOffset":0,
			"target":34962
		},
		{
			"buffer":0,
			"byteLength":11352,
			"byteOffset":11352,
			"target":34962
		},
		{
			"buffer":0,
			"byteLength":5652,
			"byteOffset":22704,
			"target":34963
		},
		{
			"buffer":0,
			"byteLength":5208,
			"byteOffset":28356,
			"target":34962
		},
		{
			"buffer":0,
			"byteLength":5208,
			"byteOffset":33564,
			"target":34962
		},
		{
			"buffer":0,
			"byteLength":2532,
			"byteOffset":38772,
			"target":34963
		},
		{
			"buffer":0,
			"byteLength":4512,
			"byteOffset":41304,
			"target":34962
		},
		{
			"buffer":0,
			"byteLength":4512,
			"byteOffset":45816,
			"target":34962
		},
		{
			"buffer":0,
			"byteLength":2040,
			"byteOffset":50328,
			"target":34963
		},
		{
			"buffer":0,
			"byteLength":12312,
			"byteOffset":52368,
			"target":34962
		},
		{
			"buffer":0,
			"byteLength":12312,
			"byteOffset":64680,
			"target":34962
		},
		{
			"buffer":0,
			"byteLength":5748,
			"byteOffset":76992,
			"target":34963
		},
		{
			"buffer":0,
			"byteLength":1536,
			"byteOffset":82740,
			"target":34962
		},
		{
			"buffer":0,
			"byteLength":1536,
			"byteOffset":84276,
			"target":34962
		},
		{
			"buffer":0,
			"byteLength":744,
			"byteOffset":85812,
			"target":34963
		},
		{
			"buffer":0,
			"byteLength":1536,
			"byteOffset":86556,
			"target":34962
		},
		{
			"buffer":0,
			"byteLength":1536,
			"byteOffset":88092,
			"target":34962
		},
		{
			"buffer":0,
			"byteLength":768,
			"byteOffset":89628,
			"target":34963
		},
		{
			"buffer":0,
			"byteLength":71256,
			"byteOffset":90396,
			"target":34962
		},
		{
			"buffer":0,
			"byteLength":71256,
			"byteOffset":161652,
			"target":34962
		},
		{
			"buffer":0,
			"byteLength":25452,
			"byteOffset":232908,
			"target":34963
		},
		{
			"buffer":0,
			"byteLength":7200,
			"byteOffset":258360,
			"target":34962
		},
		{
			"buffer":0,
			"byteLength":7200,
			"byteOffset":265560,
			"target":34962
		},
		{
			"buffer":0,
			"byteLength":6984,
			"byteOffset":272760,
			"target":34963
		},
		{
			"buffer":0,
			"byteLength":16800,
			"byteOffset":279744,
			"target":34962
		},
		{
			"buffer":0,
			"byteLength":16800,
			"byteOffset":296544,
			"target":34962
		},
		{
			"buffer":0,
			"byteLength":15528,
			"byteOffset":313344,
			"target":34963
		}
	],
	"buffers":[
		{
			"byteLength":328872,
			"uri":"AirtightDoorL.bin"
		}
	]
}
