{
	"asset":{
		"generator":"Khronos glTF Blender I/O v5.0.21",
		"version":"2.0"
	},
	"scene":0,
	"scenes":[
		{
			"name":"Scene",
			"nodes":[
				0
			]
		}
	],
	"nodes":[
		{
			"mesh":0,
			"name":"Body",
			"rotation":[
				0.7071068286895752,
				0,
				0,
				0.7071068286895752
			]
		}
	],
	"materials":[
		{
			"doubleSided":true,
			"name":"color1",
			"pbrMetallicRoughness":{
				"metallicFactor":0,
				"roughnessFactor":0
			}
		},
		{
			"doubleSided":true,
			"name":"color2",
			"pbrMetallicRoughness":{
				"baseColorFactor":[
					0.800000011920929,
					0.800000011920929,
					0.800000011920929,
					1
				]
			}
		},
		{
			"doubleSided":true,
			"name":"fluid-connector",
			"pbrMetallicRoughness":{
				"baseColorFactor":[
					0.5,
					0.5,
					0.5,
					1
				]
			}
		}
	],
	"meshes":[
		{
			"name":"Cylinder.003",
			"primitives":[
				{
					"attributes":{
						"POSITION":0,
						"NORMAL":1
					},
					"indices":2,
					"material":0
				},
				{
					"attributes":{
						"POSITION":3,
						"NORMAL":4
					},
					"indices":5,
					"material":1
				},
				{
					"attributes":{
						"POSITION":6,
						"NORMAL":7
					},
					"indices":8,
					"material":2
				}
			]
		}
	],
	"accessors":[
		{
			"bufferView":0,
			"componentType":5126,
			"count":2494,
			"max":[
				0.3499999940395355,
				1.0000016689300537,
				0.382669061422348
			],
			"min":[
				-0.3499999940395355,
				-1.0000075101852417,
				-0.3840458393096924
			],
			"type":"VEC3"
		},
		{
			"bufferView":1,
			"componentType":5126,
			"count":2494,
			"type":"VEC3"
		},
		{
			"bufferView":2,
			"componentType":5123,
			"count":14364,
			"type":"SCALAR"
		},
		{
			"bufferView":3,
			"componentType":5126,
			"count":1048,
			"max":[
				0.375,
				0.7625000476837158,
				0.3750000596046448
			],
			"min":[
				-0.375,
				-0.7625000476837158,
				-0.3750000596046448
			],
			"type":"VEC3"
		},
		{
			"bufferView":4,
			"componentType":5126,
			"count":1048,
			"type":"VEC3"
		},
		{
			"bufferView":5,
			"componentType":5123,
			"count":3048,
			"type":"SCALAR"
		},
		{
			"bufferView":6,
			"componentType":5126,
			"count":18432,
			"max":[
				0.12489652633666992,
				1.0228335857391357,
				0.4128335416316986
			],
			"min":[
				-0.12489652633666992,
				-1.0278334617614746,
				-0.412833571434021
			],
			"type":"VEC3"
		},
		{
			"bufferView":7,
			"componentType":5126,
			"count":18432,
			"type":"VEC3"
		},
		{
			"bufferView":8,
			"componentType":5123,
			"count":43248,
			"type":"SCALAR"
		}
	],
	"bufferViews":[
		{
			"buffer":0,
			"byteLength":29928,
			"byteOffset":0,
			"target":34962
		},
		{
			"buffer":0,
			"byteLength":29928,
			"byteOffset":29928,
			"target":34962
		},
		{
			"buffer":0,
			"byteLength":28728,
			"byteOffset":59856,
			"target":34963
		},
		{
			"buffer":0,
			"byteLength":12576,
			"byteOffset":88584,
			"target":34962
		},
		{
			"buffer":0,
			"byteLength":12576,
			"byteOffset":101160,
			"target":34962
		},
		{
			"buffer":0,
			"byteLength":6096,
			"byteOffset":113736,
			"target":34963
		},
		{
			"buffer":0,
			"byteLength":221184,
			"byteOffset":119832,
			"target":34962
		},
		{
			"buffer":0,
			"byteLength":221184,
			"byteOffset":341016,
			"target":34962
		},
		{
			"buffer":0,
			"byteLength":86496,
			"byteOffset":562200,
			"target":34963
		}
	],
	"buffers":[
		{
			"byteLength":648696,
			"uri":"HeatExchanger.bin"
		}
	]
}
