{
	"asset":{
		"generator":"Khronos glTF Blender I/O v5.0.21",
		"version":"2.0"
	},
	"scene":0,
	"scenes":[
		{
			"name":"Scene",
			"nodes":[
				0
			]
		}
	],
	"nodes":[
		{
			"mesh":0,
			"name":"Cube",
			"rotation":[
				0,
				0.7071068286895752,
				0,
				0.7071068286895752
			]
		}
	],
	"materials":[
		{
			"doubleSided":true,
			"name":"color2",
			"pbrMetallicRoughness":{
				"baseColorFactor":[
					0.800000011920929,
					0.800000011920929,
					0.800000011920929,
					1
				]
			}
		},
		{
			"doubleSided":true,
			"name":"fluid-connector",
			"pbrMetallicRoughness":{
				"baseColorFactor":[
					0.5,
					0.5,
					0.5,
					1
				]
			}
		},
		{
			"doubleSided":true,
			"name":"body",
			"pbrMetallicRoughness":{
				"baseColorFactor":[
					0.029999999329447746,
					0.029999999329447746,
					0.029999999329447746,
					1
				]
			}
		}
	],
	"meshes":[
		{
			"name":"Cube",
			"primitives":[
				{
					"attributes":{
						"POSITION":0,
						"NORMAL":1
					},
					"indices":2,
					"material":0
				},
				{
					"attributes":{
						"POSITION":3,
						"NORMAL":4
					},
					"indices":5,
					"material":1
				},
				{
					"attributes":{
						"POSITION":6,
						"NORMAL":7
					},
					"indices":8,
					"material":2
				}
			]
		}
	],
	"accessors":[
		{
			"bufferView":0,
			"componentType":5126,
			"count":86,
			"max":[
				0.125,
				0.125,
				0.125
			],
			"min":[
				-0.125,
				-0.125,
				-0.125
			],
			"type":"VEC3"
		},
		{
			"bufferView":1,
			"componentType":5126,
			"count":86,
			"type":"VEC3"
		},
		{
			"bufferView":2,
			"componentType":5123,
			"count":198,
			"type":"SCALAR"
		},
		{
			"bufferView":3,
			"componentType":5126,
			"count":9216,
			"max":[
				0.16283352673053741,
				0.12489652633666992,
				0.12489652633666992
			],
			"min":[
				-0.16283352673053741,
				-0.12489652633666992,
				-0.12489652633666992
			],
			"type":"VEC3"
		},
		{
			"bufferView":4,
			"componentType":5126,
			"count":9216,
			"type":"VEC3"
		},
		{
			"bufferView":5,
			"componentType":5123,
			"count":21624,
			"type":"SCALAR"
		},
		{
			"bufferView":6,
			"componentType":5126,
			"count":62,
			"max":[
				0.03999999910593033,
				0.125,
				0.125
			],
			"min":[
				-0.034999996423721313,
				-0.125,
				-0.125
			],
			"type":"VEC3"
		},
		{
			"bufferView":7,
			"componentType":5126,
			"count":62,
			"type":"VEC3"
		},
		{
			"bufferView":8,
			"componentType":5123,
			"count":90,
			"type":"SCALAR"
		}
	],
	"bufferViews":[
		{
			"buffer":0,
			"byteLength":1032,
			"byteOffset":0,
			"target":34962
		},
		{
			"buffer":0,
			"byteLength":1032,
			"byteOffset":1032,
			"target":34962
		},
		{
			"buffer":0,
			"byteLength":396,
			"byteOffset":2064,
			"target":34963
		},
		{
			"buffer":0,
			"byteLength":110592,
			"byteOffset":2460,
			"target":34962
		},
		{
			"buffer":0,
			"byteLength":110592,
			"byteOffset":113052,
			"target":34962
		},
		{
			"buffer":0,
			"byteLength":43248,
			"byteOffset":223644,
			"target":34963
		},
		{
			"buffer":0,
			"byteLength":744,
			"byteOffset":266892,
			"target":34962
		},
		{
			"buffer":0,
			"byteLength":744,
			"byteOffset":267636,
			"target":34962
		},
		{
			"buffer":0,
			"byteLength":180,
			"byteOffset":268380,
			"target":34963
		}
	],
	"buffers":[
		{
			"byteLength":268560,
			"uri":"CheckValve.bin"
		}
	]
}
