{
	"asset":{
		"generator":"Khronos glTF Blender I/O v4.5.49",
		"version":"2.0"
	},
	"scene":0,
	"scenes":[
		{
			"name":"Scene",
			"nodes":[
				0,
				1,
				2,
				3
			]
		}
	],
	"nodes":[
		{
			"mesh":0,
			"name":"Body",
			"rotation":[
				0,
				1,
				0,
				7.549790126404332e-08
			]
		},
		{
			"mesh":1,
			"name":"HourHand"
		},
		{
			"mesh":2,
			"name":"MinuteHand"
		},
		{
			"mesh":3,
			"name":"SecondHand"
		}
	],
	"materials":[
		{
			"doubleSided":true,
			"name":"color1",
			"pbrMetallicRoughness":{
				"metallicFactor":0,
				"roughnessFactor":0
			}
		},
		{
			"doubleSided":true,
			"name":"data-connector",
			"pbrMetallicRoughness":{
				"baseColorFactor":[
					0,
					0.05000000074505806,
					0.5,
					1
				]
			}
		},
		{
			"doubleSided":true,
			"name":"Emissive",
			"pbrMetallicRoughness":{
				"baseColorFactor":[
					0,
					0,
					0,
					1
				]
			}
		},
		{
			"doubleSided":true,
			"name":"body",
			"pbrMetallicRoughness":{
				"baseColorFactor":[
					0.029999999329447746,
					0.029999999329447746,
					0.029999999329447746,
					1
				]
			}
		}
	],
	"meshes":[
		{
			"name":"Cylinder",
			"primitives":[
				{
					"attributes":{
						"POSITION":0,
						"NORMAL":1
					},
					"indices":2,
					"material":0
				},
				{
					"attributes":{
						"POSITION":3,
						"NORMAL":4
					},
					"indices":5,
					"material":1
				},
				{
					"attributes":{
						"POSITION":6,
						"NORMAL":7
					},
					"indices":8,
					"material":2
				},
				{
					"attributes":{
						"POSITION":9,
						"NORMAL":10
					},
					"indices":11,
					"material":3
				}
			]
		},
		{
			"name":"Cylinder.002",
			"primitives":[
				{
					"attributes":{
						"POSITION":12,
						"NORMAL":13
					},
					"indices":14,
					"material":3
				},
				{
					"attributes":{
						"POSITION":15,
						"NORMAL":16
					},
					"indices":17,
					"material":2
				}
			]
		},
		{
			"name":"Cylinder.003",
			"primitives":[
				{
					"attributes":{
						"POSITION":18,
						"NORMAL":19
					},
					"indices":20,
					"material":3
				},
				{
					"attributes":{
						"POSITION":21,
						"NORMAL":22
					},
					"indices":23,
					"material":2
				}
			]
		},
		{
			"name":"Cylinder.004",
			"primitives":[
				{
					"attributes":{
						"POSITION":24,
						"NORMAL":25
					},
					"indices":26,
					"material":2
				}
			]
		}
	],
	"accessors":[
		{
			"bufferView":0,
			"componentType":5126,
			"count":3136,
			"max":[
				0.24842381477355957,
				0.04500005394220352,
				0.24842381477355957
			],
			"min":[
				-0.24842381477355957,
				-5.587935447692871e-09,
				-0.24842381477355957
			],
			"type":"VEC3"
		},
		{
			"bufferView":1,
			"componentType":5126,
			"count":3136,
			"type":"VEC3"
		},
		{
			"bufferView":2,
			"componentType":5123,
			"count":6324,
			"type":"SCALAR"
		},
		{
			"bufferView":3,
			"componentType":5126,
			"count":376,
			"max":[
				0.02985917031764984,
				5.587935447692871e-09,
				0.02985917031764984
			],
			"min":[
				-0.02985917031764984,
				-0.02064894698560238,
				-0.02985917218029499
			],
			"type":"VEC3"
		},
		{
			"bufferView":4,
			"componentType":5126,
			"count":376,
			"type":"VEC3"
		},
		{
			"bufferView":5,
			"componentType":5123,
			"count":1020,
			"type":"SCALAR"
		},
		{
			"bufferView":6,
			"componentType":5126,
			"count":846,
			"max":[
				0.21673280000686646,
				0.015812279656529427,
				0.21673282980918884
			],
			"min":[
				-0.21673284471035004,
				0.011313521303236485,
				-0.21673278510570526
			],
			"type":"VEC3"
		},
		{
			"bufferView":7,
			"componentType":5126,
			"count":846,
			"type":"VEC3"
		},
		{
			"bufferView":8,
			"componentType":5123,
			"count":1524,
			"type":"SCALAR"
		},
		{
			"bufferView":9,
			"componentType":5126,
			"count":6719,
			"max":[
				0.21602852642536163,
				0.03750000149011612,
				0.21602855622768402
			],
			"min":[
				-0.2160285860300064,
				0.0120109673589468,
				-0.21602849662303925
			],
			"type":"VEC3"
		},
		{
			"bufferView":10,
			"componentType":5126,
			"count":6719,
			"type":"VEC3"
		},
		{
			"bufferView":11,
			"componentType":5123,
			"count":12732,
			"type":"SCALAR"
		},
		{
			"bufferView":12,
			"componentType":5126,
			"count":277,
			"max":[
				0.014999991282820702,
				0.01958225481212139,
				0.030146237462759018
			],
			"min":[
				-0.015000015497207642,
				0.018582256510853767,
				-0.015000000596046448
			],
			"type":"VEC3"
		},
		{
			"bufferView":13,
			"componentType":5126,
			"count":277,
			"type":"VEC3"
		},
		{
			"bufferView":14,
			"componentType":5123,
			"count":660,
			"type":"SCALAR"
		},
		{
			"bufferView":15,
			"componentType":5126,
			"count":58,
			"max":[
				0.015000001527369022,
				0.01958225481212139,
				0.12104249745607376
			],
			"min":[
				-0.015000004321336746,
				0.018582256510853767,
				0.030146237462759018
			],
			"type":"VEC3"
		},
		{
			"bufferView":16,
			"componentType":5126,
			"count":58,
			"type":"VEC3"
		},
		{
			"bufferView":17,
			"componentType":5123,
			"count":156,
			"type":"SCALAR"
		},
		{
			"bufferView":18,
			"componentType":5126,
			"count":225,
			"max":[
				0.015000000596046448,
				0.024582253769040108,
				0.129896879196167
			],
			"min":[
				-0.015000000596046448,
				0.023582255467772484,
				-0.015000000596046448
			],
			"type":"VEC3"
		},
		{
			"bufferView":19,
			"componentType":5126,
			"count":225,
			"type":"VEC3"
		},
		{
			"bufferView":20,
			"componentType":5123,
			"count":444,
			"type":"SCALAR"
		},
		{
			"bufferView":21,
			"componentType":5126,
			"count":54,
			"max":[
				0.007500004954636097,
				0.024582253769040108,
				0.2000010758638382
			],
			"min":[
				-0.007499993778765202,
				0.023582255467772484,
				0.129896879196167
			],
			"type":"VEC3"
		},
		{
			"bufferView":22,
			"componentType":5126,
			"count":54,
			"type":"VEC3"
		},
		{
			"bufferView":23,
			"componentType":5123,
			"count":120,
			"type":"SCALAR"
		},
		{
			"bufferView":24,
			"componentType":5126,
			"count":216,
			"max":[
				0.015000000596046448,
				0.029582252725958824,
				0.2000010758638382
			],
			"min":[
				-0.015000000596046448,
				0.0285822544246912,
				-0.015000000596046448
			],
			"type":"VEC3"
		},
		{
			"bufferView":25,
			"componentType":5126,
			"count":216,
			"type":"VEC3"
		},
		{
			"bufferView":26,
			"componentType":5123,
			"count":408,
			"type":"SCALAR"
		}
	],
	"bufferViews":[
		{
			"buffer":0,
			"byteLength":37632,
			"byteOffset":0,
			"target":34962
		},
		{
			"buffer":0,
			"byteLength":37632,
			"byteOffset":37632,
			"target":34962
		},
		{
			"buffer":0,
			"byteLength":12648,
			"byteOffset":75264,
			"target":34963
		},
		{
			"buffer":0,
			"byteLength":4512,
			"byteOffset":87912,
			"target":34962
		},
		{
			"buffer":0,
			"byteLength":4512,
			"byteOffset":92424,
			"target":34962
		},
		{
			"buffer":0,
			"byteLength":2040,
			"byteOffset":96936,
			"target":34963
		},
		{
			"buffer":0,
			"byteLength":10152,
			"byteOffset":98976,
			"target":34962
		},
		{
			"buffer":0,
			"byteLength":10152,
			"byteOffset":109128,
			"target":34962
		},
		{
			"buffer":0,
			"byteLength":3048,
			"byteOffset":119280,
			"target":34963
		},
		{
			"buffer":0,
			"byteLength":80628,
			"byteOffset":122328,
			"target":34962
		},
		{
			"buffer":0,
			"byteLength":80628,
			"byteOffset":202956,
			"target":34962
		},
		{
			"buffer":0,
			"byteLength":25464,
			"byteOffset":283584,
			"target":34963
		},
		{
			"buffer":0,
			"byteLength":3324,
			"byteOffset":309048,
			"target":34962
		},
		{
			"buffer":0,
			"byteLength":3324,
			"byteOffset":312372,
			"target":34962
		},
		{
			"buffer":0,
			"byteLength":1320,
			"byteOffset":315696,
			"target":34963
		},
		{
			"buffer":0,
			"byteLength":696,
			"byteOffset":317016,
			"target":34962
		},
		{
			"buffer":0,
			"byteLength":696,
			"byteOffset":317712,
			"target":34962
		},
		{
			"buffer":0,
			"byteLength":312,
			"byteOffset":318408,
			"target":34963
		},
		{
			"buffer":0,
			"byteLength":2700,
			"byteOffset":318720,
			"target":34962
		},
		{
			"buffer":0,
			"byteLength":2700,
			"byteOffset":321420,
			"target":34962
		},
		{
			"buffer":0,
			"byteLength":888,
			"byteOffset":324120,
			"target":34963
		},
		{
			"buffer":0,
			"byteLength":648,
			"byteOffset":325008,
			"target":34962
		},
		{
			"buffer":0,
			"byteLength":648,
			"byteOffset":325656,
			"target":34962
		},
		{
			"buffer":0,
			"byteLength":240,
			"byteOffset":326304,
			"target":34963
		},
		{
			"buffer":0,
			"byteLength":2592,
			"byteOffset":326544,
			"target":34962
		},
		{
			"buffer":0,
			"byteLength":2592,
			"byteOffset":329136,
			"target":34962
		},
		{
			"buffer":0,
			"byteLength":816,
			"byteOffset":331728,
			"target":34963
		}
	],
	"buffers":[
		{
			"byteLength":332544,
			"uri":"Clock.bin"
		}
	]
}
