{
	"asset":{
		"generator":"Khronos glTF Blender I/O v5.0.21",
		"version":"2.0"
	},
	"scene":0,
	"scenes":[
		{
			"name":"Scene",
			"nodes":[
				0
			]
		}
	],
	"nodes":[
		{
			"mesh":0,
			"name":"Cylinder",
			"rotation":[
				0.7071068286895752,
				0,
				0,
				0.7071068286895752
			]
		}
	],
	"materials":[
		{
			"doubleSided":true,
			"name":"pipe",
			"pbrMetallicRoughness":{
				"baseColorFactor":[
					0.5,
					0.5,
					0.5,
					1
				],
				"roughnessFactor":0
			}
		},
		{
			"doubleSided":true,
			"name":"color2",
			"pbrMetallicRoughness":{
				"baseColorFactor":[
					0.800000011920929,
					0.800000011920929,
					0.800000011920929,
					1
				]
			}
		},
		{
			"doubleSided":true,
			"name":"body",
			"pbrMetallicRoughness":{
				"baseColorFactor":[
					0.029999999329447746,
					0.029999999329447746,
					0.029999999329447746,
					1
				]
			}
		},
		{
			"doubleSided":true,
			"name":"fluid-connector",
			"pbrMetallicRoughness":{
				"baseColorFactor":[
					0.5,
					0.5,
					0.5,
					1
				]
			}
		},
		{
			"doubleSided":true,
			"name":"fluid-connector.001",
			"pbrMetallicRoughness":{
				"baseColorFactor":[
					0.5,
					0.5,
					0.5,
					1
				]
			}
		},
		{
			"doubleSided":true,
			"name":"data-connector",
			"pbrMetallicRoughness":{
				"baseColorFactor":[
					0,
					0.05000000074505806,
					0.5,
					1
				]
			}
		}
	],
	"meshes":[
		{
			"name":"Cylinder",
			"primitives":[
				{
					"attributes":{
						"POSITION":0,
						"NORMAL":1
					},
					"indices":2,
					"material":0
				},
				{
					"attributes":{
						"POSITION":3,
						"NORMAL":4
					},
					"indices":5,
					"material":1
				},
				{
					"attributes":{
						"POSITION":6,
						"NORMAL":7
					},
					"indices":8,
					"material":2
				},
				{
					"attributes":{
						"POSITION":9,
						"NORMAL":10
					},
					"indices":11,
					"material":3
				},
				{
					"attributes":{
						"POSITION":12,
						"NORMAL":13
					},
					"indices":14,
					"material":4
				},
				{
					"attributes":{
						"POSITION":15,
						"NORMAL":16
					},
					"indices":17,
					"material":5
				}
			]
		}
	],
	"accessors":[
		{
			"bufferView":0,
			"componentType":5126,
			"count":384,
			"max":[
				0.08799999952316284,
				0.08000000566244125,
				0.08799999952316284
			],
			"min":[
				-0.08799999952316284,
				-0.08000000566244125,
				-0.08799999952316284
			],
			"type":"VEC3"
		},
		{
			"bufferView":1,
			"componentType":5126,
			"count":384,
			"type":"VEC3"
		},
		{
			"bufferView":2,
			"componentType":5123,
			"count":1140,
			"type":"SCALAR"
		},
		{
			"bufferView":3,
			"componentType":5126,
			"count":420,
			"max":[
				0.09239999949932098,
				0.05047827959060669,
				0.09239999949932098
			],
			"min":[
				-0.09239999949932098,
				-0.04952172935009003,
				-0.12116474658250809
			],
			"type":"VEC3"
		},
		{
			"bufferView":4,
			"componentType":5126,
			"count":420,
			"type":"VEC3"
		},
		{
			"bufferView":5,
			"componentType":5123,
			"count":1200,
			"type":"SCALAR"
		},
		{
			"bufferView":6,
			"componentType":5126,
			"count":24,
			"max":[
				0.06000000238418579,
				0.060000013560056686,
				-0.019999993965029716
			],
			"min":[
				-0.06000000238418579,
				-0.06000000238418579,
				-0.12000000476837158
			],
			"type":"VEC3"
		},
		{
			"bufferView":7,
			"componentType":5126,
			"count":24,
			"type":"VEC3"
		},
		{
			"bufferView":8,
			"componentType":5123,
			"count":36,
			"type":"SCALAR"
		},
		{
			"bufferView":9,
			"componentType":5126,
			"count":4864,
			"max":[
				0.12492115795612335,
				-0.07249972969293594,
				0.12492114305496216
			],
			"min":[
				-0.12492115795612335,
				-0.11783351749181747,
				-0.12492116540670395
			],
			"type":"VEC3"
		},
		{
			"bufferView":10,
			"componentType":5126,
			"count":4864,
			"type":"VEC3"
		},
		{
			"bufferView":11,
			"componentType":5123,
			"count":11766,
			"type":"SCALAR"
		},
		{
			"bufferView":12,
			"componentType":5126,
			"count":4864,
			"max":[
				0.12492115795612335,
				0.11783353239297867,
				0.12492116540670395
			],
			"min":[
				-0.12492115795612335,
				0.07249972969293594,
				-0.12492114305496216
			],
			"type":"VEC3"
		},
		{
			"bufferView":13,
			"componentType":5126,
			"count":4864,
			"type":"VEC3"
		},
		{
			"bufferView":14,
			"componentType":5123,
			"count":11766,
			"type":"SCALAR"
		},
		{
			"bufferView":15,
			"componentType":5126,
			"count":376,
			"max":[
				0.02985917031764984,
				0.029859179630875587,
				-0.11999998241662979
			],
			"min":[
				-0.02985917031764984,
				-0.029859161004424095,
				-0.1406489461660385
			],
			"type":"VEC3"
		},
		{
			"bufferView":16,
			"componentType":5126,
			"count":376,
			"type":"VEC3"
		},
		{
			"bufferView":17,
			"componentType":5123,
			"count":1020,
			"type":"SCALAR"
		}
	],
	"bufferViews":[
		{
			"buffer":0,
			"byteLength":4608,
			"byteOffset":0,
			"target":34962
		},
		{
			"buffer":0,
			"byteLength":4608,
			"byteOffset":4608,
			"target":34962
		},
		{
			"buffer":0,
			"byteLength":2280,
			"byteOffset":9216,
			"target":34963
		},
		{
			"buffer":0,
			"byteLength":5040,
			"byteOffset":11496,
			"target":34962
		},
		{
			"buffer":0,
			"byteLength":5040,
			"byteOffset":16536,
			"target":34962
		},
		{
			"buffer":0,
			"byteLength":2400,
			"byteOffset":21576,
			"target":34963
		},
		{
			"buffer":0,
			"byteLength":288,
			"byteOffset":23976,
			"target":34962
		},
		{
			"buffer":0,
			"byteLength":288,
			"byteOffset":24264,
			"target":34962
		},
		{
			"buffer":0,
			"byteLength":72,
			"byteOffset":24552,
			"target":34963
		},
		{
			"buffer":0,
			"byteLength":58368,
			"byteOffset":24624,
			"target":34962
		},
		{
			"buffer":0,
			"byteLength":58368,
			"byteOffset":82992,
			"target":34962
		},
		{
			"buffer":0,
			"byteLength":23532,
			"byteOffset":141360,
			"target":34963
		},
		{
			"buffer":0,
			"byteLength":58368,
			"byteOffset":164892,
			"target":34962
		},
		{
			"buffer":0,
			"byteLength":58368,
			"byteOffset":223260,
			"target":34962
		},
		{
			"buffer":0,
			"byteLength":23532,
			"byteOffset":281628,
			"target":34963
		},
		{
			"buffer":0,
			"byteLength":4512,
			"byteOffset":305160,
			"target":34962
		},
		{
			"buffer":0,
			"byteLength":4512,
			"byteOffset":309672,
			"target":34962
		},
		{
			"buffer":0,
			"byteLength":2040,
			"byteOffset":314184,
			"target":34963
		}
	],
	"buffers":[
		{
			"byteLength":316224,
			"uri":"PipeSensor.bin"
		}
	]
}
