{
	"asset":{
		"generator":"Khronos glTF Blender I/O v5.0.21",
		"version":"2.0"
	},
	"scene":0,
	"scenes":[
		{
			"name":"Scene",
			"nodes":[
				0,
				1
			]
		}
	],
	"nodes":[
		{
			"mesh":0,
			"name":"Housing"
		},
		{
			"mesh":1,
			"name":"LightAssembly"
		}
	],
	"materials":[
		{
			"alphaMode":"BLEND",
			"name":"Glass",
			"pbrMetallicRoughness":{
				"baseColorFactor":[
					1,
					1,
					1,
					0.10000000149011612
				],
				"metallicFactor":0,
				"roughnessFactor":0.10000000149011612
			}
		},
		{
			"doubleSided":true,
			"name":"color2",
			"pbrMetallicRoughness":{
				"baseColorFactor":[
					0.800000011920929,
					0.800000011920929,
					0.800000011920929,
					1
				]
			}
		},
		{
			"doubleSided":true,
			"name":"data-connector",
			"pbrMetallicRoughness":{
				"baseColorFactor":[
					0,
					0.05000000074505806,
					0.5,
					1
				]
			}
		},
		{
			"doubleSided":true,
			"name":"lv-connector",
			"pbrMetallicRoughness":{
				"baseColorFactor":[
					0.5,
					0,
					0,
					1
				]
			}
		},
		{
			"doubleSided":true,
			"name":"Chrome",
			"pbrMetallicRoughness":{
				"baseColorFactor":[
					0.800000011920929,
					0.800000011920929,
					0.800000011920929,
					1
				],
				"roughnessFactor":0.5
			}
		},
		{
			"doubleSided":true,
			"name":"LED",
			"pbrMetallicRoughness":{
				"baseColorFactor":[
					0.800000011920929,
					0.800000011920929,
					0.800000011920929,
					1
				],
				"metallicFactor":0,
				"roughnessFactor":0.5
			}
		},
		{
			"doubleSided":true,
			"name":"ChromeEmissive",
			"pbrMetallicRoughness":{
				"baseColorFactor":[
					0.800000011920929,
					0.800000011920929,
					0.800000011920929,
					1
				],
				"roughnessFactor":0.5
			}
		}
	],
	"meshes":[
		{
			"name":"Cylinder.001",
			"primitives":[
				{
					"attributes":{
						"POSITION":0,
						"NORMAL":1
					},
					"indices":2,
					"material":0
				},
				{
					"attributes":{
						"POSITION":3,
						"NORMAL":4
					},
					"indices":5,
					"material":1
				},
				{
					"attributes":{
						"POSITION":6,
						"NORMAL":7
					},
					"indices":8,
					"material":2
				},
				{
					"attributes":{
						"POSITION":9,
						"NORMAL":10
					},
					"indices":11,
					"material":3
				}
			]
		},
		{
			"name":"Cylinder.002",
			"primitives":[
				{
					"attributes":{
						"POSITION":12,
						"NORMAL":13
					},
					"indices":14,
					"material":4
				},
				{
					"attributes":{
						"POSITION":15,
						"NORMAL":16
					},
					"indices":17,
					"material":5
				},
				{
					"attributes":{
						"POSITION":18,
						"NORMAL":19
					},
					"indices":20,
					"material":1
				},
				{
					"attributes":{
						"POSITION":21,
						"NORMAL":22
					},
					"indices":23,
					"material":6
				}
			]
		}
	],
	"accessors":[
		{
			"bufferView":0,
			"componentType":5126,
			"count":2304,
			"max":[
				0.08002027124166489,
				0.0725981667637825,
				0.08002027124166489
			],
			"min":[
				-0.08002027124166489,
				-0.08740183711051941,
				-0.08002027124166489
			],
			"type":"VEC3"
		},
		{
			"bufferView":1,
			"componentType":5126,
			"count":2304,
			"type":"VEC3"
		},
		{
			"bufferView":2,
			"componentType":5123,
			"count":13428,
			"type":"SCALAR"
		},
		{
			"bufferView":3,
			"componentType":5126,
			"count":576,
			"max":[
				0.10000000149011612,
				-0.08740183711051941,
				0.10000000149011612
			],
			"min":[
				-0.10000000149011612,
				-0.125059574842453,
				-0.10000000149011612
			],
			"type":"VEC3"
		},
		{
			"bufferView":4,
			"componentType":5126,
			"count":576,
			"type":"VEC3"
		},
		{
			"bufferView":5,
			"componentType":5123,
			"count":2676,
			"type":"SCALAR"
		},
		{
			"bufferView":6,
			"componentType":5126,
			"count":376,
			"max":[
				-0.010140828788280487,
				-0.12505926191806793,
				0.02985917031764984
			],
			"min":[
				-0.06985917687416077,
				-0.14570823311805725,
				-0.02985917031764984
			],
			"type":"VEC3"
		},
		{
			"bufferView":7,
			"componentType":5126,
			"count":376,
			"type":"VEC3"
		},
		{
			"bufferView":8,
			"componentType":5123,
			"count":1020,
			"type":"SCALAR"
		},
		{
			"bufferView":9,
			"componentType":5126,
			"count":312,
			"max":[
				0.07062584906816483,
				-0.12505920231342316,
				0.030625849962234497
			],
			"min":[
				0.009374145418405533,
				-0.14543962478637695,
				-0.030625849962234497
			],
			"type":"VEC3"
		},
		{
			"bufferView":10,
			"componentType":5126,
			"count":312,
			"type":"VEC3"
		},
		{
			"bufferView":11,
			"componentType":5123,
			"count":996,
			"type":"SCALAR"
		},
		{
			"bufferView":12,
			"componentType":5126,
			"count":1250,
			"max":[
				0.030377494171261787,
				0.0355188213288784,
				0.050999999046325684
			],
			"min":[
				-0.030377494171261787,
				-0.06648117303848267,
				-0.050999999046325684
			],
			"type":"VEC3"
		},
		{
			"bufferView":13,
			"componentType":5126,
			"count":1250,
			"type":"VEC3"
		},
		{
			"bufferView":14,
			"componentType":5123,
			"count":6324,
			"type":"SCALAR"
		},
		{
			"bufferView":15,
			"componentType":5126,
			"count":224,
			"max":[
				0.025377491489052773,
				-0.01148117333650589,
				0.0040000006556510925
			],
			"min":[
				-0.025377491489052773,
				-0.019481174647808075,
				-0.003999999724328518
			],
			"type":"VEC3"
		},
		{
			"bufferView":16,
			"componentType":5126,
			"count":224,
			"type":"VEC3"
		},
		{
			"bufferView":17,
			"componentType":5123,
			"count":1236,
			"type":"SCALAR"
		},
		{
			"bufferView":18,
			"componentType":5126,
			"count":64,
			"max":[
				0.019999999552965164,
				-0.009752091020345688,
				0.019999999552965164
			],
			"min":[
				-0.020000001415610313,
				-0.0877520889043808,
				-0.019999999552965164
			],
			"type":"VEC3"
		},
		{
			"bufferView":19,
			"componentType":5126,
			"count":64,
			"type":"VEC3"
		},
		{
			"bufferView":20,
			"componentType":5123,
			"count":372,
			"type":"SCALAR"
		},
		{
			"bufferView":21,
			"componentType":5126,
			"count":962,
			"max":[
				0.030377494171261787,
				0.03451882302761078,
				0.05000000074505806
			],
			"min":[
				-0.030377494171261787,
				-0.06548117101192474,
				-0.05000000074505806
			],
			"type":"VEC3"
		},
		{
			"bufferView":22,
			"componentType":5126,
			"count":962,
			"type":"VEC3"
		},
		{
			"bufferView":23,
			"componentType":5123,
			"count":5472,
			"type":"SCALAR"
		}
	],
	"bufferViews":[
		{
			"buffer":0,
			"byteLength":27648,
			"byteOffset":0,
			"target":34962
		},
		{
			"buffer":0,
			"byteLength":27648,
			"byteOffset":27648,
			"target":34962
		},
		{
			"buffer":0,
			"byteLength":26856,
			"byteOffset":55296,
			"target":34963
		},
		{
			"buffer":0,
			"byteLength":6912,
			"byteOffset":82152,
			"target":34962
		},
		{
			"buffer":0,
			"byteLength":6912,
			"byteOffset":89064,
			"target":34962
		},
		{
			"buffer":0,
			"byteLength":5352,
			"byteOffset":95976,
			"target":34963
		},
		{
			"buffer":0,
			"byteLength":4512,
			"byteOffset":101328,
			"target":34962
		},
		{
			"buffer":0,
			"byteLength":4512,
			"byteOffset":105840,
			"target":34962
		},
		{
			"buffer":0,
			"byteLength":2040,
			"byteOffset":110352,
			"target":34963
		},
		{
			"buffer":0,
			"byteLength":3744,
			"byteOffset":112392,
			"target":34962
		},
		{
			"buffer":0,
			"byteLength":3744,
			"byteOffset":116136,
			"target":34962
		},
		{
			"buffer":0,
			"byteLength":1992,
			"byteOffset":119880,
			"target":34963
		},
		{
			"buffer":0,
			"byteLength":15000,
			"byteOffset":121872,
			"target":34962
		},
		{
			"buffer":0,
			"byteLength":15000,
			"byteOffset":136872,
			"target":34962
		},
		{
			"buffer":0,
			"byteLength":12648,
			"byteOffset":151872,
			"target":34963
		},
		{
			"buffer":0,
			"byteLength":2688,
			"byteOffset":164520,
			"target":34962
		},
		{
			"buffer":0,
			"byteLength":2688,
			"byteOffset":167208,
			"target":34962
		},
		{
			"buffer":0,
			"byteLength":2472,
			"byteOffset":169896,
			"target":34963
		},
		{
			"buffer":0,
			"byteLength":768,
			"byteOffset":172368,
			"target":34962
		},
		{
			"buffer":0,
			"byteLength":768,
			"byteOffset":173136,
			"target":34962
		},
		{
			"buffer":0,
			"byteLength":744,
			"byteOffset":173904,
			"target":34963
		},
		{
			"buffer":0,
			"byteLength":11544,
			"byteOffset":174648,
			"target":34962
		},
		{
			"buffer":0,
			"byteLength":11544,
			"byteOffset":186192,
			"target":34962
		},
		{
			"buffer":0,
			"byteLength":10944,
			"byteOffset":197736,
			"target":34963
		}
	],
	"buffers":[
		{
			"byteLength":208680,
			"uri":"RotaryLight.bin"
		}
	]
}
