{
	"asset":{
		"generator":"Khronos glTF Blender I/O v5.0.21",
		"version":"2.0"
	},
	"scene":0,
	"scenes":[
		{
			"name":"Scene",
			"nodes":[
				0
			]
		}
	],
	"nodes":[
		{
			"mesh":0,
			"name":"Cylinder",
			"rotation":[
				0.7071068286895752,
				0,
				0,
				0.7071068286895752
			]
		}
	],
	"materials":[
		{
			"doubleSided":true,
			"name":"color1",
			"pbrMetallicRoughness":{
				"metallicFactor":0,
				"roughnessFactor":0
			}
		},
		{
			"doubleSided":true,
			"name":"color2",
			"pbrMetallicRoughness":{
				"baseColorFactor":[
					0.800000011920929,
					0.800000011920929,
					0.800000011920929,
					1
				]
			}
		},
		{
			"doubleSided":true,
			"name":"fluid-connector",
			"pbrMetallicRoughness":{
				"baseColorFactor":[
					0.5,
					0.5,
					0.5,
					1
				]
			}
		},
		{
			"doubleSided":true,
			"name":"data-connector",
			"pbrMetallicRoughness":{
				"baseColorFactor":[
					0,
					0.05000000074505806,
					0.5,
					1
				]
			}
		},
		{
			"doubleSided":true,
			"name":"body",
			"pbrMetallicRoughness":{
				"baseColorFactor":[
					0.029999999329447746,
					0.029999999329447746,
					0.029999999329447746,
					1
				]
			}
		}
	],
	"meshes":[
		{
			"name":"Cylinder",
			"primitives":[
				{
					"attributes":{
						"POSITION":0,
						"NORMAL":1
					},
					"indices":2,
					"material":0
				},
				{
					"attributes":{
						"POSITION":3,
						"NORMAL":4
					},
					"indices":5,
					"material":1
				},
				{
					"attributes":{
						"POSITION":6,
						"NORMAL":7
					},
					"indices":8,
					"material":2
				},
				{
					"attributes":{
						"POSITION":9,
						"NORMAL":10
					},
					"indices":11,
					"material":3
				},
				{
					"attributes":{
						"POSITION":12,
						"NORMAL":13
					},
					"indices":14,
					"material":4
				}
			]
		}
	],
	"accessors":[
		{
			"bufferView":0,
			"componentType":5126,
			"count":384,
			"max":[
				0.125,
				0.22499999403953552,
				0.125
			],
			"min":[
				-0.125,
				-0.22499999403953552,
				-0.125
			],
			"type":"VEC3"
		},
		{
			"bufferView":1,
			"componentType":5126,
			"count":384,
			"type":"VEC3"
		},
		{
			"bufferView":2,
			"componentType":5123,
			"count":1140,
			"type":"SCALAR"
		},
		{
			"bufferView":3,
			"componentType":5126,
			"count":128,
			"max":[
				0.125,
				0.07500000298023224,
				0.125
			],
			"min":[
				-0.125,
				-0.07500000298023224,
				-0.125
			],
			"type":"VEC3"
		},
		{
			"bufferView":4,
			"componentType":5126,
			"count":128,
			"type":"VEC3"
		},
		{
			"bufferView":5,
			"componentType":5123,
			"count":384,
			"type":"SCALAR"
		},
		{
			"bufferView":6,
			"componentType":5126,
			"count":9216,
			"max":[
				0.12489652633666992,
				0.24783353507518768,
				0.12489654123783112
			],
			"min":[
				-0.12489652633666992,
				-0.24783353507518768,
				-0.12489654868841171
			],
			"type":"VEC3"
		},
		{
			"bufferView":7,
			"componentType":5126,
			"count":9216,
			"type":"VEC3"
		},
		{
			"bufferView":8,
			"componentType":5123,
			"count":21624,
			"type":"SCALAR"
		},
		{
			"bufferView":9,
			"componentType":5126,
			"count":376,
			"max":[
				0.12560760974884033,
				0.029859177768230438,
				-0.07014983892440796
			],
			"min":[
				0.07014983892440796,
				-0.029859164729714394,
				-0.12560760974884033
			],
			"type":"VEC3"
		},
		{
			"bufferView":10,
			"componentType":5126,
			"count":376,
			"type":"VEC3"
		},
		{
			"bufferView":11,
			"componentType":5123,
			"count":1020,
			"type":"SCALAR"
		},
		{
			"bufferView":12,
			"componentType":5126,
			"count":38,
			"max":[
				0.12361359596252441,
				0.052688118070364,
				-0.042781129479408264
			],
			"min":[
				0.042781129479408264,
				-0.052688125520944595,
				-0.12361360341310501
			],
			"type":"VEC3"
		},
		{
			"bufferView":13,
			"componentType":5126,
			"count":38,
			"type":"VEC3"
		},
		{
			"bufferView":14,
			"componentType":5123,
			"count":84,
			"type":"SCALAR"
		}
	],
	"bufferViews":[
		{
			"buffer":0,
			"byteLength":4608,
			"byteOffset":0,
			"target":34962
		},
		{
			"buffer":0,
			"byteLength":4608,
			"byteOffset":4608,
			"target":34962
		},
		{
			"buffer":0,
			"byteLength":2280,
			"byteOffset":9216,
			"target":34963
		},
		{
			"buffer":0,
			"byteLength":1536,
			"byteOffset":11496,
			"target":34962
		},
		{
			"buffer":0,
			"byteLength":1536,
			"byteOffset":13032,
			"target":34962
		},
		{
			"buffer":0,
			"byteLength":768,
			"byteOffset":14568,
			"target":34963
		},
		{
			"buffer":0,
			"byteLength":110592,
			"byteOffset":15336,
			"target":34962
		},
		{
			"buffer":0,
			"byteLength":110592,
			"byteOffset":125928,
			"target":34962
		},
		{
			"buffer":0,
			"byteLength":43248,
			"byteOffset":236520,
			"target":34963
		},
		{
			"buffer":0,
			"byteLength":4512,
			"byteOffset":279768,
			"target":34962
		},
		{
			"buffer":0,
			"byteLength":4512,
			"byteOffset":284280,
			"target":34962
		},
		{
			"buffer":0,
			"byteLength":2040,
			"byteOffset":288792,
			"target":34963
		},
		{
			"buffer":0,
			"byteLength":456,
			"byteOffset":290832,
			"target":34962
		},
		{
			"buffer":0,
			"byteLength":456,
			"byteOffset":291288,
			"target":34962
		},
		{
			"buffer":0,
			"byteLength":168,
			"byteOffset":291744,
			"target":34963
		}
	],
	"buffers":[
		{
			"byteLength":291912,
			"uri":"InlineTank.bin"
		}
	]
}
